<?xml version="1.0"?>
<svg width="250mm" height="200mm" viewBox="0 0   3200    1500"
     xmlns="http://www.w3.org/2000/svg"
     xmlns:xlink="http://www.w3.org/1999/xlink"
     xmlns:ev="http://www.w3.org/2001/xml-events">
<g font-family="Verdana" font-size="8" >
  <line x1="   300" y1="   870" x2="   300" y2="   950" style = "stroke:silver  ;"/>
  <line x1="   300" y1="   870" x2="   300" y2="  1030" style = "stroke:silver  ;"/>
  <line x1="   300" y1="   870" x2="   300" y2="  1110" style = "stroke:silver  ;"/>
  <line x1="   300" y1="   870" x2="   300" y2="  1190" style = "stroke:silver  ;"/>
  <line x1="   300" y1="   870" x2="   300" y2="  1270" style = "stroke:silver  ;"/>
  <line x1="   300" y1="   950" x2="   300" y2="  1030" style = "stroke:silver  ;"/>
  <line x1="   300" y1="   950" x2="   300" y2="  1110" style = "stroke:silver  ;"/>
  <line x1="   300" y1="   950" x2="   300" y2="  1190" style = "stroke:silver  ;"/>
  <line x1="   300" y1="   950" x2="   300" y2="  1270" style = "stroke:silver  ;"/>
  <line x1="   300" y1="  1030" x2="   300" y2="  1110" style = "stroke:silver  ;"/>
  <line x1="   300" y1="  1030" x2="   300" y2="  1190" style = "stroke:silver  ;"/>
  <line x1="   300" y1="  1030" x2="   300" y2="  1270" style = "stroke:silver  ;"/>
  <line x1="   300" y1="  1110" x2="   300" y2="  1190" style = "stroke:silver  ;"/>
  <line x1="   300" y1="  1110" x2="   300" y2="  1270" style = "stroke:silver  ;"/>
  <line x1="   300" y1="  1190" x2="   300" y2="  1270" style = "stroke:silver  ;"/>
  <line x1="  2400" y1="   550" x2="   550" y2="    30" style = "stroke:silver  ;"/>
  <line x1="  2400" y1="   590" x2="   550" y2="   110" style = "stroke:silver  ;"/>
  <line x1="  2400" y1="   630" x2="   550" y2="   190" style = "stroke:silver  ;"/>
  <line x1="  2400" y1="   670" x2="   550" y2="   270" style = "stroke:silver  ;"/>
  <line x1="  2400" y1="   710" x2="   550" y2="   350" style = "stroke:silver  ;"/>
  <line x1="  2400" y1="   750" x2="   550" y2="   430" style = "stroke:silver  ;"/>
  <rect x="  1450" y="    20" width="   200" height="    20" style = "fill:chartreuse; stroke: Black;"/>     1
  <text x="  1452" y="    33">THERMAL ZONE 1 THERMAL ZONE</text>
  <rect x="   200" y="   860" width="   200" height="    20" style = "fill:snow; stroke: Black;"/>     7
  <text x="   202" y="   873">OutdoorAir:NodeList</text>
  <rect x="   200" y="   940" width="   200" height="    20" style = "fill:snow; stroke: Black;"/>     8
  <text x="   202" y="   953">OutdoorAir:NodeList</text>
  <rect x="   200" y="  1020" width="   200" height="    20" style = "fill:snow; stroke: Black;"/>     9
  <text x="   202" y="  1033">OutdoorAir:NodeList</text>
  <rect x="   200" y="  1100" width="   200" height="    20" style = "fill:snow; stroke: Black;"/>    10
  <text x="   202" y="  1113">OutdoorAir:NodeList</text>
  <rect x="   200" y="  1180" width="   200" height="    20" style = "fill:snow; stroke: Black;"/>    11
  <text x="   202" y="  1193">OutdoorAir:NodeList</text>
  <rect x="   200" y="  1260" width="   200" height="    20" style = "fill:snow; stroke: Black;"/>    12
  <text x="   202" y="  1273">OutdoorAir:NodeList</text>
  <rect x="   800" y="   500" width="   200" height="    20" style = "fill:wheat; stroke: Black;"/>    32
  <text x="   802" y="   513">ADIABATIC PIPE</text>
  <rect x="  1400" y="   540" width="   200" height="    20" style = "fill:wheat; stroke: Black;"/>    33
  <text x="  1402" y="   553">PIPE ADIABATIC 2</text>
  <rect x="  1700" y="   540" width="   200" height="    20" style = "fill:wheat; stroke: Black;"/>    34
  <text x="  1702" y="   553">CHILLED WATER LOOP DEMAND INLET PIPE</text>
  <rect x="  2300" y="   780" width="   200" height="    20" style = "fill:wheat; stroke: Black;"/>    35
  <text  x="  2302" y="   788">CHILLED WATER LOOP DEMAND BYPASS
  <tspan x="  2302" y="   796">PIPE</tspan></text>
  <rect x="  2900" y="   780" width="   200" height="    20" style = "fill:wheat; stroke: Black;"/>    36
  <text  x="  2902" y="   788">CHILLED WATER LOOP DEMAND OUTLET
  <tspan x="  2902" y="   796">PIPE</tspan></text>
  <rect x="  2000" y="   540" width="   200" height="    20" style = "fill:wheat; stroke: Black;"/>    37
  <text x="  2002" y="   553">CHILLED WATER LOOP DEMAND SPLITTER</text>
  <rect x="  2600" y="   780" width="   200" height="    20" style = "fill:wheat; stroke: Black;"/>    38
  <text x="  2602" y="   793">CHILLED WATER LOOP DEMAND MIXER</text>
  <rect x="   500" y="   500" width="   200" height="    20" style = "fill:wheat; stroke: Black;"/>    39
  <text x="   502" y="   513">CHILLED WATER LOOP SUPPLY SPLITTER</text>
  <rect x="  1100" y="   540" width="   200" height="    20" style = "fill:wheat; stroke: Black;"/>    40
  <text x="  1102" y="   553">CHILLED WATER LOOP SUPPLY MIXER</text>
  <rect x="   950" y="    20" width="   200" height="    20" style = "fill:wheat; stroke: Black;"/>    41
  <text x="   952" y="    33">AIR LOOP HVAC ZONE SPLITTER 1</text>
  <rect x="   950" y="   100" width="   200" height="    20" style = "fill:wheat; stroke: Black;"/>    42
  <text x="   952" y="   113">AIR LOOP HVAC ZONE SPLITTER 2</text>
  <rect x="   950" y="   180" width="   200" height="    20" style = "fill:wheat; stroke: Black;"/>    43
  <text x="   952" y="   193">AIR LOOP HVAC ZONE SPLITTER 3</text>
  <rect x="   950" y="   260" width="   200" height="    20" style = "fill:wheat; stroke: Black;"/>    44
  <text x="   952" y="   273">AIR LOOP HVAC ZONE SPLITTER 4</text>
  <rect x="   950" y="   340" width="   200" height="    20" style = "fill:wheat; stroke: Black;"/>    45
  <text x="   952" y="   353">AIR LOOP HVAC ZONE SPLITTER 5</text>
  <rect x="   950" y="   420" width="   200" height="    20" style = "fill:wheat; stroke: Black;"/>    46
  <text x="   952" y="   433">AIR LOOP HVAC ZONE SPLITTER 6</text>
  <rect x="  1200" y="    20" width="   200" height="    20" style = "fill:salmon; stroke: Black;"/>    47
  <text x="  1202" y="    33">CV ELEC RHT COIL</text>
  <rect x="  1200" y="   100" width="   200" height="    20" style = "fill:salmon; stroke: Black;"/>    48
  <text x="  1202" y="   113">CV ELEC RHT COIL 1</text>
  <rect x="  1200" y="   180" width="   200" height="    20" style = "fill:salmon; stroke: Black;"/>    49
  <text x="  1202" y="   193">CV ELEC RHT COIL 2</text>
  <rect x="  1200" y="   260" width="   200" height="    20" style = "fill:salmon; stroke: Black;"/>    50
  <text x="  1202" y="   273">CV ELEC RHT COIL 3</text>
  <rect x="  1200" y="   340" width="   200" height="    20" style = "fill:salmon; stroke: Black;"/>    51
  <text x="  1202" y="   353">CV ELEC RHT COIL 4</text>
  <rect x="  1200" y="   420" width="   200" height="    20" style = "fill:salmon; stroke: Black;"/>    52
  <text x="  1202" y="   433">CV ELEC RHT COIL 5</text>
  <rect x="  1700" y="    20" width="   200" height="    20" style = "fill:wheat; stroke: Black;"/>    53
  <text x="  1702" y="    33">AIR LOOP HVAC ZONE MIXER 1</text>
  <rect x="  1700" y="   100" width="   200" height="    20" style = "fill:wheat; stroke: Black;"/>    54
  <text x="  1702" y="   113">AIR LOOP HVAC ZONE MIXER 2</text>
  <rect x="  1700" y="   180" width="   200" height="    20" style = "fill:wheat; stroke: Black;"/>    55
  <text x="  1702" y="   193">AIR LOOP HVAC ZONE MIXER 3</text>
  <rect x="  1700" y="   260" width="   200" height="    20" style = "fill:wheat; stroke: Black;"/>    56
  <text x="  1702" y="   273">AIR LOOP HVAC ZONE MIXER 4</text>
  <rect x="  1700" y="   340" width="   200" height="    20" style = "fill:wheat; stroke: Black;"/>    57
  <text x="  1702" y="   353">AIR LOOP HVAC ZONE MIXER 5</text>
  <rect x="  1700" y="   420" width="   200" height="    20" style = "fill:wheat; stroke: Black;"/>    58
  <text x="  1702" y="   433">AIR LOOP HVAC ZONE MIXER 6</text>
  <rect x="   200" y="    20" width="   200" height="    20" style = "fill:lawngreen; stroke: Black;"/>    59
  <text  x="   202" y="    28">AIR LOOP HVAC OUTDOOR AIR SYSTEM 1
  <tspan x="   202" y="    36">OUTDOOR AIR MIXER</tspan></text>
  <rect x="   200" y="   100" width="   200" height="    20" style = "fill:lawngreen; stroke: Black;"/>    60
  <text  x="   202" y="   108">AIR LOOP HVAC OUTDOOR AIR SYSTEM 2
  <tspan x="   202" y="   116">OUTDOOR AIR MIXER</tspan></text>
  <rect x="   200" y="   180" width="   200" height="    20" style = "fill:lawngreen; stroke: Black;"/>    61
  <text  x="   202" y="   188">AIR LOOP HVAC OUTDOOR AIR SYSTEM 3
  <tspan x="   202" y="   196">OUTDOOR AIR MIXER</tspan></text>
  <rect x="   200" y="   260" width="   200" height="    20" style = "fill:lawngreen; stroke: Black;"/>    62
  <text  x="   202" y="   268">AIR LOOP HVAC OUTDOOR AIR SYSTEM 4
  <tspan x="   202" y="   276">OUTDOOR AIR MIXER</tspan></text>
  <rect x="   200" y="   340" width="   200" height="    20" style = "fill:lawngreen; stroke: Black;"/>    63
  <text  x="   202" y="   348">AIR LOOP HVAC OUTDOOR AIR SYSTEM 5
  <tspan x="   202" y="   356">OUTDOOR AIR MIXER</tspan></text>
  <rect x="   200" y="   420" width="   200" height="    20" style = "fill:lawngreen; stroke: Black;"/>    64
  <text  x="   202" y="   428">AIR LOOP HVAC OUTDOOR AIR SYSTEM 6
  <tspan x="   202" y="   436">OUTDOOR AIR MIXER</tspan></text>
  <rect x="  2300" y="   540" width="   200" height="    20" style = "fill:skyblue; stroke: Black;"/>    65
  <text x="  2302" y="   553">COIL COOLING WATER 1</text>
  <rect x="   450" y="    20" width="   200" height="    20" style = "fill:skyblue; stroke: Black;"/>    66
  <text x="   452" y="    33">COIL COOLING WATER 1</text>
  <rect x="  2300" y="   580" width="   200" height="    20" style = "fill:skyblue; stroke: Black;"/>    67
  <text x="  2302" y="   593">COIL COOLING WATER 2</text>
  <rect x="   450" y="   100" width="   200" height="    20" style = "fill:skyblue; stroke: Black;"/>    68
  <text x="   452" y="   113">COIL COOLING WATER 2</text>
  <rect x="  2300" y="   620" width="   200" height="    20" style = "fill:skyblue; stroke: Black;"/>    69
  <text x="  2302" y="   633">COIL COOLING WATER 3</text>
  <rect x="   450" y="   180" width="   200" height="    20" style = "fill:skyblue; stroke: Black;"/>    70
  <text x="   452" y="   193">COIL COOLING WATER 3</text>
  <rect x="  2300" y="   660" width="   200" height="    20" style = "fill:skyblue; stroke: Black;"/>    71
  <text x="  2302" y="   673">COIL COOLING WATER 4</text>
  <rect x="   450" y="   260" width="   200" height="    20" style = "fill:skyblue; stroke: Black;"/>    72
  <text x="   452" y="   273">COIL COOLING WATER 4</text>
  <rect x="  2300" y="   700" width="   200" height="    20" style = "fill:skyblue; stroke: Black;"/>    73
  <text x="  2302" y="   713">COIL COOLING WATER 5</text>
  <rect x="   450" y="   340" width="   200" height="    20" style = "fill:skyblue; stroke: Black;"/>    74
  <text x="   452" y="   353">COIL COOLING WATER 5</text>
  <rect x="  2300" y="   740" width="   200" height="    20" style = "fill:skyblue; stroke: Black;"/>    75
  <text x="  2302" y="   753">COIL COOLING WATER 6</text>
  <rect x="   450" y="   420" width="   200" height="    20" style = "fill:skyblue; stroke: Black;"/>    76
  <text x="   452" y="   433">COIL COOLING WATER 6</text>
  <rect x="   700" y="    20" width="   200" height="    20" style = "fill:silver; stroke: Black;"/>    83
  <text x="   702" y="    33">FAN VARIABLE VOLUME 1</text>
  <rect x="   700" y="   100" width="   200" height="    20" style = "fill:silver; stroke: Black;"/>    84
  <text x="   702" y="   113">FAN VARIABLE VOLUME 2</text>
  <rect x="   700" y="   180" width="   200" height="    20" style = "fill:silver; stroke: Black;"/>    85
  <text x="   702" y="   193">FAN VARIABLE VOLUME 3</text>
  <rect x="   700" y="   260" width="   200" height="    20" style = "fill:silver; stroke: Black;"/>    86
  <text x="   702" y="   273">FAN VARIABLE VOLUME 4</text>
  <rect x="   700" y="   340" width="   200" height="    20" style = "fill:silver; stroke: Black;"/>    87
  <text x="   702" y="   353">FAN VARIABLE VOLUME 5</text>
  <rect x="   700" y="   420" width="   200" height="    20" style = "fill:silver; stroke: Black;"/>    88
  <text x="   702" y="   433">FAN VARIABLE VOLUME 6</text>
  <rect x="   800" y="   540" width="   200" height="    20" style = "fill:powderblue; stroke: Black;"/>    95
  <text x="   802" y="   553">CHILLER - WATER COOLED</text>
  <rect x="   200" y="   500" width="   200" height="    20" style = "fill:springgreen; stroke: Black;"/>    98
  <text x="   202" y="   513">PUMP VARIABLE SPEED 1</text>
  <rect x="  1450" y="   100" width="   200" height="    20" style = "fill:chartreuse; stroke: Black;"/>    99
  <text x="  1452" y="   113">THERMAL ZONE 2 THERMAL ZONE</text>
  <rect x="  1450" y="   180" width="   200" height="    20" style = "fill:chartreuse; stroke: Black;"/>   100
  <text x="  1452" y="   193">THERMAL ZONE 3 THERMAL ZONE</text>
  <rect x="  1450" y="   260" width="   200" height="    20" style = "fill:chartreuse; stroke: Black;"/>   101
  <text x="  1452" y="   273">THERMAL ZONE 4 THERMAL ZONE</text>
  <rect x="  1450" y="   340" width="   200" height="    20" style = "fill:chartreuse; stroke: Black;"/>   102
  <text x="  1452" y="   353">THERMAL ZONE 5 THERMAL ZONE</text>
  <rect x="  1450" y="   420" width="   200" height="    20" style = "fill:chartreuse; stroke: Black;"/>   103
  <text x="  1452" y="   433">THERMAL ZONE 6 THERMAL ZONE</text>
  <line x1="  1000" y1="   510" x2="  1100" y2="   550" style = "stroke: Black;"/>
  <line x1="  1600" y1="   550" x2="  1700" y2="   550" style = "stroke: Black;"/>
  <line x1="  1900" y1="   550" x2="  2000" y2="   550" style = "stroke: Black;"/>
  <line x1="  2500" y1="   790" x2="  2600" y2="   790" style = "stroke: Black;"/>
  <line x1="  2200" y1="   550" x2="  2300" y2="   550" style = "stroke: Black;"/>
  <line x1="  2200" y1="   550" x2="  2300" y2="   590" style = "stroke: Black;"/>
  <line x1="  2200" y1="   550" x2="  2300" y2="   630" style = "stroke: Black;"/>
  <line x1="  2200" y1="   550" x2="  2300" y2="   670" style = "stroke: Black;"/>
  <line x1="  2200" y1="   550" x2="  2300" y2="   710" style = "stroke: Black;"/>
  <line x1="  2200" y1="   550" x2="  2300" y2="   750" style = "stroke: Black;"/>
  <line x1="  2200" y1="   550" x2="  2300" y2="   790" style = "stroke: Black;"/>
  <line x1="  2800" y1="   790" x2="  2900" y2="   790" style = "stroke: Black;"/>
  <line x1="   700" y1="   510" x2="   800" y2="   510" style = "stroke: Black;"/>
  <line x1="   700" y1="   510" x2="   800" y2="   550" style = "stroke: Black;"/>
  <line x1="  1300" y1="   550" x2="  1400" y2="   550" style = "stroke: Black;"/>
  <line x1="  1150" y1="    30" x2="  1200" y2="    30" style = "stroke: Black;"/>
  <line x1="  1150" y1="   110" x2="  1200" y2="   110" style = "stroke: Black;"/>
  <line x1="  1150" y1="   190" x2="  1200" y2="   190" style = "stroke: Black;"/>
  <line x1="  1150" y1="   270" x2="  1200" y2="   270" style = "stroke: Black;"/>
  <line x1="  1150" y1="   350" x2="  1200" y2="   350" style = "stroke: Black;"/>
  <line x1="  1150" y1="   430" x2="  1200" y2="   430" style = "stroke: Black;"/>
  <line x1="  1400" y1="    30" x2="  1450" y2="    30" style = "stroke: Black;"/>
  <line x1="  1400" y1="   110" x2="  1450" y2="   110" style = "stroke: Black;"/>
  <line x1="  1400" y1="   190" x2="  1450" y2="   190" style = "stroke: Black;"/>
  <line x1="  1400" y1="   270" x2="  1450" y2="   270" style = "stroke: Black;"/>
  <line x1="  1400" y1="   350" x2="  1450" y2="   350" style = "stroke: Black;"/>
  <line x1="  1400" y1="   430" x2="  1450" y2="   430" style = "stroke: Black;"/>
  <line x1="   400" y1="    30" x2="   450" y2="    30" style = "stroke: Black;"/>
  <line x1="   400" y1="   110" x2="   450" y2="   110" style = "stroke: Black;"/>
  <line x1="   400" y1="   190" x2="   450" y2="   190" style = "stroke: Black;"/>
  <line x1="   400" y1="   270" x2="   450" y2="   270" style = "stroke: Black;"/>
  <line x1="   400" y1="   350" x2="   450" y2="   350" style = "stroke: Black;"/>
  <line x1="   400" y1="   430" x2="   450" y2="   430" style = "stroke: Black;"/>
  <line x1="  2500" y1="   550" x2="  2600" y2="   790" style = "stroke: Black;"/>
  <line x1="   650" y1="    30" x2="   700" y2="    30" style = "stroke: Black;"/>
  <line x1="  2500" y1="   590" x2="  2600" y2="   790" style = "stroke: Black;"/>
  <line x1="   650" y1="   110" x2="   700" y2="   110" style = "stroke: Black;"/>
  <line x1="  2500" y1="   630" x2="  2600" y2="   790" style = "stroke: Black;"/>
  <line x1="   650" y1="   190" x2="   700" y2="   190" style = "stroke: Black;"/>
  <line x1="  2500" y1="   670" x2="  2600" y2="   790" style = "stroke: Black;"/>
  <line x1="   650" y1="   270" x2="   700" y2="   270" style = "stroke: Black;"/>
  <line x1="  2500" y1="   710" x2="  2600" y2="   790" style = "stroke: Black;"/>
  <line x1="   650" y1="   350" x2="   700" y2="   350" style = "stroke: Black;"/>
  <line x1="  2500" y1="   750" x2="  2600" y2="   790" style = "stroke: Black;"/>
  <line x1="   650" y1="   430" x2="   700" y2="   430" style = "stroke: Black;"/>
  <line x1="   900" y1="    30" x2="   950" y2="    30" style = "stroke: Black;"/>
  <line x1="   900" y1="   110" x2="   950" y2="   110" style = "stroke: Black;"/>
  <line x1="   900" y1="   190" x2="   950" y2="   190" style = "stroke: Black;"/>
  <line x1="   900" y1="   270" x2="   950" y2="   270" style = "stroke: Black;"/>
  <line x1="   900" y1="   350" x2="   950" y2="   350" style = "stroke: Black;"/>
  <line x1="   900" y1="   430" x2="   950" y2="   430" style = "stroke: Black;"/>
  <line x1="  1000" y1="   550" x2="  1100" y2="   550" style = "stroke: Black;"/>
  <line x1="   400" y1="   510" x2="   500" y2="   510" style = "stroke: Black;"/>
  <line x1="  1650" y1="    30" x2="  1700" y2="    30" style = "stroke: Black;"/>
  <line x1="  1650" y1="   110" x2="  1700" y2="   110" style = "stroke: Black;"/>
  <line x1="  1650" y1="   190" x2="  1700" y2="   190" style = "stroke: Black;"/>
  <line x1="  1650" y1="   270" x2="  1700" y2="   270" style = "stroke: Black;"/>
  <line x1="  1650" y1="   350" x2="  1700" y2="   350" style = "stroke: Black;"/>
  <line x1="  1650" y1="   430" x2="  1700" y2="   430" style = "stroke: Black;"/>
  <line x1="   200" y1="    30" x2="   175" y2="    30" style = "stroke: Black;"/>
  <line x1="   175" y1="    30" x2="   175" y2="     0" style = "stroke: Black;"/>
  <line x1="   175" y1="     0" x2="  1925" y2="     0" style = "stroke: Black;"/>
  <line x1="  1925" y1="     0" x2="  1925" y2="    30" style = "stroke: Black;"/>
  <line x1="  1925" y1="    30" x2="  1900" y2="    30" style = "stroke: Black;"/>
  <line x1="   200" y1="   110" x2="   175" y2="   110" style = "stroke: Black;"/>
  <line x1="   175" y1="   110" x2="   175" y2="    80" style = "stroke: Black;"/>
  <line x1="   175" y1="    80" x2="  1925" y2="    80" style = "stroke: Black;"/>
  <line x1="  1925" y1="    80" x2="  1925" y2="   110" style = "stroke: Black;"/>
  <line x1="  1925" y1="   110" x2="  1900" y2="   110" style = "stroke: Black;"/>
  <line x1="   200" y1="   190" x2="   175" y2="   190" style = "stroke: Black;"/>
  <line x1="   175" y1="   190" x2="   175" y2="   160" style = "stroke: Black;"/>
  <line x1="   175" y1="   160" x2="  1925" y2="   160" style = "stroke: Black;"/>
  <line x1="  1925" y1="   160" x2="  1925" y2="   190" style = "stroke: Black;"/>
  <line x1="  1925" y1="   190" x2="  1900" y2="   190" style = "stroke: Black;"/>
  <line x1="   200" y1="   270" x2="   175" y2="   270" style = "stroke: Black;"/>
  <line x1="   175" y1="   270" x2="   175" y2="   240" style = "stroke: Black;"/>
  <line x1="   175" y1="   240" x2="  1925" y2="   240" style = "stroke: Black;"/>
  <line x1="  1925" y1="   240" x2="  1925" y2="   270" style = "stroke: Black;"/>
  <line x1="  1925" y1="   270" x2="  1900" y2="   270" style = "stroke: Black;"/>
  <line x1="   200" y1="   350" x2="   175" y2="   350" style = "stroke: Black;"/>
  <line x1="   175" y1="   350" x2="   175" y2="   320" style = "stroke: Black;"/>
  <line x1="   175" y1="   320" x2="  1925" y2="   320" style = "stroke: Black;"/>
  <line x1="  1925" y1="   320" x2="  1925" y2="   350" style = "stroke: Black;"/>
  <line x1="  1925" y1="   350" x2="  1900" y2="   350" style = "stroke: Black;"/>
  <line x1="   200" y1="   430" x2="   175" y2="   430" style = "stroke: Black;"/>
  <line x1="   175" y1="   430" x2="   175" y2="   400" style = "stroke: Black;"/>
  <line x1="   175" y1="   400" x2="  1925" y2="   400" style = "stroke: Black;"/>
  <line x1="  1925" y1="   400" x2="  1925" y2="   430" style = "stroke: Black;"/>
  <line x1="  1925" y1="   430" x2="  1900" y2="   430" style = "stroke: Black;"/>
  <line x1="   200" y1="   510" x2="   175" y2="   510" style = "stroke: Black;"/>
  <line x1="   175" y1="   510" x2="   175" y2="   480" style = "stroke: Black;"/>
  <line x1="   175" y1="   480" x2="  3125" y2="   480" style = "stroke: Black;"/>
  <line x1="  3125" y1="   480" x2="  3125" y2="   790" style = "stroke: Black;"/>
  <line x1="  3125" y1="   790" x2="  3100" y2="   790" style = "stroke: Black;"/>
  <text x="   200" y="  1320">Unused Non-Parent Objects:</text>
  <text x="   220" y="  1340">SETPOINT MANAGER SCHEDULED 1</text>
  <text x="   220" y="  1360">SETPOINT MANAGER SCHEDULED 3</text>
  <text x="   220" y="  1380">SETPOINT MANAGER SCHEDULED 4</text>
  <text x="   220" y="  1400">SETPOINT MANAGER SCHEDULED 6</text>
  <text x="   220" y="  1420">SETPOINT MANAGER SCHEDULED 8</text>
  <text x="   220" y="  1440">SETPOINT MANAGER SCHEDULED 10</text>
  <text x="   220" y="  1460">SETPOINT MANAGER SCHEDULED 2</text>
  <text x="   220" y="  1480">NODE 8 OS DEFAULT SPM</text>
  <text x="   220" y="  1500">NODE 9 OS DEFAULT SPM</text>
  <text x="   220" y="  1520">NODE 31 OS DEFAULT SPM</text>
  <text x="   220" y="  1540">NODE 32 OS DEFAULT SPM</text>
  <text x="   220" y="  1560">NODE 43 OS DEFAULT SPM</text>
  <text x="   220" y="  1580">NODE 44 OS DEFAULT SPM</text>
  <text x="   220" y="  1600">NODE 67 OS DEFAULT SPM</text>
  <text x="   220" y="  1620">NODE 68 OS DEFAULT SPM</text>
  <text x="   220" y="  1640">NODE 90 OS DEFAULT SPM</text>
  <text x="   220" y="  1660">NODE 91 OS DEFAULT SPM</text>
  <text x="   220" y="  1680">NODE 113 OS DEFAULT SPM</text>
  <text x="   220" y="  1700">NODE 114 OS DEFAULT SPM</text>
  <text x="   220" y="  1720">CONTROLLER WATER COIL 1</text>
  <text x="   220" y="  1740">CONTROLLER WATER COIL 2</text>
  <text x="   220" y="  1760">CONTROLLER WATER COIL 3</text>
  <text x="   220" y="  1780">CONTROLLER WATER COIL 4</text>
  <text x="   220" y="  1800">CONTROLLER WATER COIL 5</text>
  <text x="   220" y="  1820">CONTROLLER WATER COIL 6</text>
  <text x="   220" y="  1840">CONTROLLER OUTDOOR AIR 1</text>
  <text x="   220" y="  1860">CONTROLLER OUTDOOR AIR 2</text>
  <text x="   220" y="  1880">CONTROLLER OUTDOOR AIR 3</text>
  <text x="   220" y="  1900">CONTROLLER OUTDOOR AIR 4</text>
  <text x="   220" y="  1920">CONTROLLER OUTDOOR AIR 5</text>
  <text x="   220" y="  1940">CONTROLLER OUTDOOR AIR 6</text>
  <text x="   220" y="  1960">OutdoorAir:Node</text>
  <text x="   200" y="  2000">
The following are not supported: objects related to controls, AirTerminal:SingleDuct:Uncontrolled, or ZoneHVAC:IdealLoadsAirSystem</text>
</g>
</svg>
