<?xml version="1.0"?>
<svg width="250mm" height="200mm" viewBox="0 0   2600    1500"
     xmlns="http://www.w3.org/2000/svg"
     xmlns:xlink="http://www.w3.org/1999/xlink"
     xmlns:ev="http://www.w3.org/2001/xml-events">
<g font-family="Verdana" font-size="8" >
  <line x1="   300" y1="   430" x2="   300" y2="   510" style = "stroke:silver  ;"/>
  <rect x="  2000" y="    20" width="   200" height="    20" style = "fill:chartreuse; stroke: Black;"/>     1
  <text x="  2002" y="    33">THERMAL ZONE 1</text>
  <rect x="   200" y="   420" width="   200" height="    20" style = "fill:snow; stroke: Black;"/>     9
  <text x="   202" y="   433">OutdoorAir:NodeList</text>
  <rect x="   200" y="   500" width="   200" height="    20" style = "fill:snow; stroke: Black;"/>    10
  <text x="   202" y="   513">OutdoorAir:NodeList</text>
  <rect x="  1400" y="    20" width="   200" height="    20" style = "fill:wheat; stroke: Black;"/>    20
  <text x="  1402" y="    33">AIR LOOP HVAC ZONE SPLITTER 1</text>
  <rect x="  1400" y="   220" width="   200" height="    20" style = "fill:wheat; stroke: Black;"/>    21
  <text x="  1402" y="   233">AIR LOOP HVAC ZONE SPLITTER 2</text>
  <rect x="  1700" y="    20" width="   200" height="    20" style = "fill:aliceblue; stroke: Black;"/>    22
  <text  x="  1702" y="    28">AIR TERMINAL SINGLE DUCT CONSTANT
  <tspan x="  1702" y="    36">VOLUME NO REHEAT 1</tspan></text>
  <rect x="  1700" y="    60" width="   200" height="    20" style = "fill:aliceblue; stroke: Black;"/>    23
  <text  x="  1702" y="    68">AIR TERMINAL SINGLE DUCT CONSTANT
  <tspan x="  1702" y="    76">VOLUME NO REHEAT 2</tspan></text>
  <rect x="  1700" y="   100" width="   200" height="    20" style = "fill:aliceblue; stroke: Black;"/>    24
  <text  x="  1702" y="   108">AIR TERMINAL SINGLE DUCT CONSTANT
  <tspan x="  1702" y="   116">VOLUME NO REHEAT 3</tspan></text>
  <rect x="  1700" y="   220" width="   200" height="    20" style = "fill:aliceblue; stroke: Black;"/>    25
  <text  x="  1702" y="   228">AIR TERMINAL SINGLE DUCT CONSTANT
  <tspan x="  1702" y="   236">VOLUME NO REHEAT 5</tspan></text>
  <rect x="  1700" y="   260" width="   200" height="    20" style = "fill:aliceblue; stroke: Black;"/>    26
  <text  x="  1702" y="   268">AIR TERMINAL SINGLE DUCT CONSTANT
  <tspan x="  1702" y="   276">VOLUME NO REHEAT 6</tspan></text>
  <rect x="  1700" y="   300" width="   200" height="    20" style = "fill:aliceblue; stroke: Black;"/>    27
  <text  x="  1702" y="   308">AIR TERMINAL SINGLE DUCT CONSTANT
  <tspan x="  1702" y="   316">VOLUME NO REHEAT 7</tspan></text>
  <rect x="  1700" y="   340" width="   200" height="    20" style = "fill:aliceblue; stroke: Black;"/>    28
  <text  x="  1702" y="   348">AIR TERMINAL SINGLE DUCT CONSTANT
  <tspan x="  1702" y="   356">VOLUME NO REHEAT 8</tspan></text>
  <rect x="  1700" y="   140" width="   200" height="    20" style = "fill:aliceblue; stroke: Black;"/>    29
  <text  x="  1702" y="   148">AIR TERMINAL SINGLE DUCT CONSTANT
  <tspan x="  1702" y="   156">VOLUME NO REHEAT 4</tspan></text>
  <rect x="  2300" y="   140" width="   200" height="    20" style = "fill:wheat; stroke: Black;"/>    30
  <text x="  2302" y="   153">AIR LOOP HVAC ZONE MIXER 1</text>
  <rect x="  2300" y="   340" width="   200" height="    20" style = "fill:wheat; stroke: Black;"/>    31
  <text x="  2302" y="   353">AIR LOOP HVAC ZONE MIXER 2</text>
  <rect x="   200" y="    20" width="   200" height="    20" style = "fill:lawngreen; stroke: Black;"/>    32
  <text  x="   202" y="    28">AIR LOOP HVAC OUTDOOR AIR SYSTEM 1
  <tspan x="   202" y="    36">OUTDOOR AIR MIXER</tspan></text>
  <rect x="   200" y="   220" width="   200" height="    20" style = "fill:lawngreen; stroke: Black;"/>    33
  <text  x="   202" y="   228">AIR LOOP HVAC OUTDOOR AIR SYSTEM 2
  <tspan x="   202" y="   236">OUTDOOR AIR MIXER</tspan></text>
  <rect x="  1100" y="    20" width="   200" height="    20" style = "fill:silver; stroke: Black;"/>    34
  <text x="  1102" y="    33">FAN CONSTANT VOLUME 1</text>
  <rect x="  1100" y="   220" width="   200" height="    20" style = "fill:silver; stroke: Black;"/>    35
  <text x="  1102" y="   233">FAN CONSTANT VOLUME 2</text>
  <rect x="   500" y="    20" width="   200" height="    20" style = "fill:skyblue; stroke: Black;"/>    38
  <text x="   502" y="    33">COIL COOLING DX SINGLE SPEED 1</text>
  <rect x="   500" y="   220" width="   200" height="    20" style = "fill:skyblue; stroke: Black;"/>    39
  <text x="   502" y="   233">COIL COOLING DX SINGLE SPEED 2</text>
  <rect x="   800" y="    20" width="   200" height="    20" style = "fill:salmon; stroke: Black;"/>    40
  <text x="   802" y="    33">COIL HEATING GAS 1</text>
  <rect x="   800" y="   220" width="   200" height="    20" style = "fill:salmon; stroke: Black;"/>    41
  <text x="   802" y="   233">COIL HEATING GAS 2</text>
  <rect x="  2000" y="    60" width="   200" height="    20" style = "fill:chartreuse; stroke: Black;"/>    42
  <text x="  2002" y="    73">THERMAL ZONE 2</text>
  <rect x="  2000" y="   100" width="   200" height="    20" style = "fill:chartreuse; stroke: Black;"/>    43
  <text x="  2002" y="   113">THERMAL ZONE 3</text>
  <rect x="  2000" y="   220" width="   200" height="    20" style = "fill:chartreuse; stroke: Black;"/>    44
  <text x="  2002" y="   233">THERMAL ZONE 4</text>
  <rect x="  2000" y="   260" width="   200" height="    20" style = "fill:chartreuse; stroke: Black;"/>    45
  <text x="  2002" y="   273">THERMAL ZONE 5</text>
  <rect x="  2000" y="   300" width="   200" height="    20" style = "fill:chartreuse; stroke: Black;"/>    46
  <text x="  2002" y="   313">THERMAL ZONE 6</text>
  <rect x="  2000" y="   340" width="   200" height="    20" style = "fill:chartreuse; stroke: Black;"/>    47
  <text x="  2002" y="   353">THERMAL ZONE 7</text>
  <rect x="  2000" y="   140" width="   200" height="    20" style = "fill:chartreuse; stroke: Black;"/>    48
  <text x="  2002" y="   153">THERMAL ZONE 8</text>
  <line x1="  1600" y1="    30" x2="  1700" y2="    30" style = "stroke: Black;"/>
  <line x1="  1600" y1="    30" x2="  1700" y2="    70" style = "stroke: Black;"/>
  <line x1="  1600" y1="    30" x2="  1700" y2="   110" style = "stroke: Black;"/>
  <line x1="  1600" y1="    30" x2="  1700" y2="   150" style = "stroke: Black;"/>
  <line x1="  1600" y1="   230" x2="  1700" y2="   230" style = "stroke: Black;"/>
  <line x1="  1600" y1="   230" x2="  1700" y2="   270" style = "stroke: Black;"/>
  <line x1="  1600" y1="   230" x2="  1700" y2="   310" style = "stroke: Black;"/>
  <line x1="  1600" y1="   230" x2="  1700" y2="   350" style = "stroke: Black;"/>
  <line x1="  1900" y1="    30" x2="  2000" y2="    30" style = "stroke: Black;"/>
  <line x1="  1900" y1="    70" x2="  2000" y2="    70" style = "stroke: Black;"/>
  <line x1="  1900" y1="   110" x2="  2000" y2="   110" style = "stroke: Black;"/>
  <line x1="  1900" y1="   230" x2="  2000" y2="   230" style = "stroke: Black;"/>
  <line x1="  1900" y1="   270" x2="  2000" y2="   270" style = "stroke: Black;"/>
  <line x1="  1900" y1="   310" x2="  2000" y2="   310" style = "stroke: Black;"/>
  <line x1="  1900" y1="   350" x2="  2000" y2="   350" style = "stroke: Black;"/>
  <line x1="  1900" y1="   150" x2="  2000" y2="   150" style = "stroke: Black;"/>
  <line x1="   400" y1="    30" x2="   500" y2="    30" style = "stroke: Black;"/>
  <line x1="   400" y1="   230" x2="   500" y2="   230" style = "stroke: Black;"/>
  <line x1="  1300" y1="    30" x2="  1400" y2="    30" style = "stroke: Black;"/>
  <line x1="  1300" y1="   230" x2="  1400" y2="   230" style = "stroke: Black;"/>
  <line x1="   700" y1="    30" x2="   800" y2="    30" style = "stroke: Black;"/>
  <line x1="   700" y1="   230" x2="   800" y2="   230" style = "stroke: Black;"/>
  <line x1="  1000" y1="    30" x2="  1100" y2="    30" style = "stroke: Black;"/>
  <line x1="  1000" y1="   230" x2="  1100" y2="   230" style = "stroke: Black;"/>
  <line x1="  2200" y1="    30" x2="  2300" y2="   150" style = "stroke: Black;"/>
  <line x1="  2200" y1="    70" x2="  2300" y2="   150" style = "stroke: Black;"/>
  <line x1="  2200" y1="   110" x2="  2300" y2="   150" style = "stroke: Black;"/>
  <line x1="  2200" y1="   230" x2="  2300" y2="   350" style = "stroke: Black;"/>
  <line x1="  2200" y1="   270" x2="  2300" y2="   350" style = "stroke: Black;"/>
  <line x1="  2200" y1="   310" x2="  2300" y2="   350" style = "stroke: Black;"/>
  <line x1="  2200" y1="   350" x2="  2300" y2="   350" style = "stroke: Black;"/>
  <line x1="  2200" y1="   150" x2="  2300" y2="   150" style = "stroke: Black;"/>
  <line x1="   200" y1="    30" x2="   175" y2="    30" style = "stroke: Black;"/>
  <line x1="   175" y1="    30" x2="   175" y2="     0" style = "stroke: Black;"/>
  <line x1="   175" y1="     0" x2="  2525" y2="     0" style = "stroke: Black;"/>
  <line x1="  2525" y1="     0" x2="  2525" y2="   150" style = "stroke: Black;"/>
  <line x1="  2525" y1="   150" x2="  2500" y2="   150" style = "stroke: Black;"/>
  <line x1="   200" y1="   230" x2="   175" y2="   230" style = "stroke: Black;"/>
  <line x1="   175" y1="   230" x2="   175" y2="   200" style = "stroke: Black;"/>
  <line x1="   175" y1="   200" x2="  2525" y2="   200" style = "stroke: Black;"/>
  <line x1="  2525" y1="   200" x2="  2525" y2="   350" style = "stroke: Black;"/>
  <line x1="  2525" y1="   350" x2="  2500" y2="   350" style = "stroke: Black;"/>
  <text x="   200" y="   560">Unused Non-Parent Objects:</text>
  <text x="   220" y="   580">OutdoorAir:Node</text>
  <text x="   220" y="   600">SETPOINT MANAGER SINGLE ZONE REHEAT 1</text>
  <text x="   220" y="   620">SETPOINT MANAGER SINGLE ZONE REHEAT 2</text>
  <text x="   220" y="   640">NODE 9 OS DEFAULT SPM</text>
  <text x="   220" y="   660">NODE 10 OS DEFAULT SPM</text>
  <text x="   220" y="   680">NODE 11 OS DEFAULT SPM</text>
  <text x="   220" y="   700">NODE 36 OS DEFAULT SPM</text>
  <text x="   220" y="   720">NODE 37 OS DEFAULT SPM</text>
  <text x="   220" y="   740">NODE 38 OS DEFAULT SPM</text>
  <text x="   220" y="   760">CONTROLLER OUTDOOR AIR 1</text>
  <text x="   220" y="   780">CONTROLLER OUTDOOR AIR 2</text>
  <text x="   200" y="   820">
The following are not supported: objects related to controls, AirTerminal:SingleDuct:Uncontrolled, or ZoneHVAC:IdealLoadsAirSystem</text>
</g>
</svg>
